<svg width="1068" height="598" viewBox="0 0 1068 598" fill="none" xmlns="http://www.w3.org/2000/svg">
<path d="M568.853 596.518C473.472 596.518 378.092 596.489 282.711 596.431C270.606 596.412 258.614 597.785 246.534 597.956C193.411 598.955 141.43 582.867 98.6401 552.182C55.8497 521.497 24.6359 477.926 9.83048 428.214C-31.2075 290.325 60.8933 154.193 199.551 130.003C225.011 125.554 251.041 125.122 276.642 128.724C279.605 129.136 282.282 129.886 284.67 126.362C326.556 64.5189 384.722 24.9696 458.909 9.29572C559.833 -12.027 653.042 5.83337 735.889 66.922C785.333 103.381 814.115 153.434 828.969 211.434C833.141 227.725 831.641 230.195 855.428 230.363C929.848 230.888 991.81 257.46 1036.05 317.144C1059.66 348.691 1070.49 387.62 1066.45 426.466C1061.2 482.527 1033.47 526.848 984.975 557.54C945.678 582.891 899.628 596.495 852.496 596.674C757.948 597.286 663.404 598.091 568.853 596.518ZM365.051 565.47C365.565 566.172 366.275 566.716 367.097 567.037C367.919 567.357 368.818 567.441 369.688 567.278C408.616 567.789 447.545 568.279 486.474 568.75C574.959 569.678 663.429 567.312 751.912 567.569C785.014 567.665 818.12 567.31 851.216 567.749C897.285 569.019 942.264 553.968 977.81 525.389C1022.94 489.523 1042.08 442.969 1031.73 386.672C1023.39 341.366 995.431 308.732 956.368 284.656C927.297 266.739 894.763 259.822 860.78 258.345C844.962 257.857 829.127 258.337 813.37 259.782C804.433 260.487 801.203 257.895 800.136 249.222C799.892 247.207 799.764 245.181 799.751 243.153C799.432 226.511 796.533 210.011 791.152 194.213C775.706 146.881 744.658 110.597 704.086 82.2017C625.759 27.3822 538.961 17.8355 447.797 42.3207C394.682 56.0654 348.366 87.8647 317.218 131.972C314.41 135.88 314.645 137 319.463 138.784C417.207 174.982 473.742 243.367 483.082 345.105C489.826 418.559 463.518 481.608 408.881 533.053C395.541 545.397 380.842 556.269 365.051 565.47ZM241.949 565.411C297.25 565.472 350.313 544.144 389.479 506.112C428.646 468.08 450.711 416.456 450.827 362.583C450.942 308.711 429.098 256.997 390.095 218.806C351.092 180.615 298.12 159.071 242.82 158.908C128.732 158.614 33.8707 249.417 33.4832 359.611C33.0822 473.648 125.658 565.04 241.949 565.411Z" fill="#DADADA" fill-opacity="0.17"/>
<path d="M832.773 487.824C832.786 478.114 834.015 468.36 831.98 458.7C829.342 446.174 823.346 443.11 811.538 448.494C792.538 457.156 773.583 465.912 754.57 474.548C751.14 476.34 747.221 477.043 743.361 476.557C739.501 476.071 735.894 474.422 733.044 471.84C731.702 470.928 730.599 469.723 729.823 468.321C729.046 466.918 728.619 465.358 728.574 463.765C728.53 462.172 728.869 460.591 729.566 459.15C730.263 457.708 731.297 456.446 732.586 455.464C737.039 451.485 742.07 448.166 747.516 445.614C762.11 438.272 776.777 431.065 791.312 423.614C803.29 417.474 803.92 409.434 793.37 401.13C785.774 395.152 776.562 392.375 767.797 388.714C760.741 385.768 753.586 383.043 746.586 379.977C741.225 377.656 736.636 373.923 733.335 369.199C729.925 364.369 728.226 359.472 731.736 353.968C735.133 348.642 740.428 347.366 746.298 347.579C750.44 348.044 754.437 349.345 758.034 351.399C775.446 359.569 792.874 367.703 810.32 375.803C812.363 376.803 814.503 377.604 816.708 378.195C823.955 379.971 828.294 377.656 830.714 370.704C832.343 365.877 833.156 360.824 833.123 355.743C833.167 343.182 832.963 330.619 832.886 318.057C832.764 314.401 833.266 310.75 834.371 307.253C835.207 303.942 837.177 301.007 839.954 298.932C842.732 296.857 846.152 295.765 849.652 295.837C853.151 295.908 856.522 297.139 859.207 299.326C861.893 301.513 863.734 304.526 864.426 307.869C867.467 319.801 866.942 332.015 866.847 344.18C866.795 350.666 866.533 357.173 866.945 363.635C867.79 376.88 873.854 380.827 886.871 376.846C897.441 373.142 907.588 368.381 917.15 362.639C926.38 357.602 935.293 351.916 945.543 348.871C955.439 345.931 963.928 348.434 968.081 355.494C968.965 356.703 969.592 358.073 969.923 359.522C970.255 360.971 970.285 362.47 970.011 363.931C969.738 365.392 969.167 366.784 968.332 368.026C967.497 369.268 966.414 370.334 965.149 371.161C961.084 373.969 956.789 376.447 952.308 378.571C936.798 386.35 921.196 393.955 905.659 401.682C901.877 403.562 898.527 405.877 897.864 410.487C897.009 416.436 900.05 420.066 905.143 422.597C922.923 431.433 940.694 440.284 958.457 449.15C960.687 450.226 962.82 451.484 964.832 452.911C966.931 454.27 968.528 456.249 969.389 458.557C970.249 460.865 970.328 463.38 969.613 465.735C969.191 468.263 967.971 470.6 966.121 472.42C964.272 474.241 961.886 475.454 959.295 475.891C952.725 477.21 945.895 476.447 939.802 473.715C927.339 468.071 915.717 460.934 903.587 454.713C896.093 450.87 888.625 446.792 879.672 446.7C877.16 446.54 874.667 447.222 872.607 448.633C870.548 450.044 869.045 452.098 868.349 454.455C866.973 458.93 866.405 463.604 866.671 468.268C866.249 482.447 867.588 496.666 865.704 510.807C865.43 513.419 864.823 515.988 863.896 518.454C863.058 521.204 861.362 523.632 859.043 525.4C856.724 527.168 853.898 528.19 850.956 528.323C847.813 528.556 844.672 527.85 841.951 526.299C839.23 524.749 837.059 522.428 835.727 519.645C832.822 514.436 832.955 508.691 832.802 503.031C832.665 497.965 832.773 492.893 832.773 487.824Z" fill="#DADADA" fill-opacity="0.17"/>
<path d="M524.236 535.86C522.791 535.751 521.321 535.746 519.89 535.515C510.013 533.922 507.562 529.701 511.359 520.622C520.765 498.134 530.348 475.716 539.65 453.187C578.751 358.494 617.791 263.776 656.77 169.035C660.412 160.176 664.92 152.7 675.369 150.361C687.309 147.687 693.721 153.392 691.501 165.097C689.06 177.969 683.069 189.644 677.975 201.564C636.197 299.313 596.161 397.747 555.695 496.012C551.829 505.4 547.488 514.603 543.441 523.922C539.837 532.221 533.214 535.784 524.236 535.86Z" fill="#DADADA" fill-opacity="0.17"/>
<path d="M291.816 330.369C292.324 289.447 327.043 264.52 367.579 270.769C392.714 274.644 411.389 287.528 419.142 311.895C429.666 344.974 405.441 380.182 368.881 385.81C343.429 389.728 321.484 383.183 304.306 363.87C295.96 354.634 291.5 342.67 291.816 330.369Z" fill="#DADADA" fill-opacity="0.17"/>
<path d="M188.475 334.397C188.103 350.158 178.458 366.666 159.339 377.599C130.492 394.096 92.7092 388.183 72.6758 364.294C44.0287 330.134 63.0563 280.823 108.532 271.584C121.581 268.709 135.183 269.298 147.919 273.29C173.063 281.426 188.554 302.641 188.475 334.397Z" fill="#DADADA" fill-opacity="0.17"/>
<path d="M246.937 448.138C247.905 428.977 257.891 412.727 276.108 401.378C283.661 396.661 292.115 393.479 300.961 392.023C309.808 390.567 318.865 390.867 327.59 392.905C336.315 394.943 344.527 398.677 351.733 403.883C358.94 409.089 364.993 415.659 369.529 423.2C383.18 445.832 379.645 470.899 360.429 489.306C327.763 520.597 282.666 509.718 261.584 486.747C251.781 476.195 246.534 462.365 246.937 448.138Z" fill="#DADADA" fill-opacity="0.17"/>
<path d="M166.683 508.849C148.702 508.195 131.676 500.799 119.158 488.207C99.6972 469.034 98.8677 436.991 117.662 414.234C135.158 393.048 158.289 386.857 184.842 393.737C211.331 400.6 229.203 416.251 233.92 443.634C235.555 454.58 233.283 465.741 227.485 475.252C221.359 485.636 212.487 494.229 201.794 500.139C191.1 506.048 178.976 509.056 166.683 508.849Z" fill="#DADADA" fill-opacity="0.17"/>
<path d="M175.567 254.147C175.808 223.183 198.045 199.523 229.661 195.769C250.594 193.283 269.374 197.128 285.411 210.996C314.381 236.05 311.688 279.485 279.012 299.699C247.758 319.033 207.787 315.926 184.902 283.869C178.596 275.195 175.323 264.774 175.567 254.147Z" fill="#DADADA" fill-opacity="0.17"/>
<path d="M240.323 386.028C225.417 385.971 216.81 379.601 214.338 366.799C211.673 353.003 216.758 343.93 229.64 339.496C243.379 334.766 258.835 339.534 264.647 350.426C272.257 364.689 263.702 387.444 240.323 386.028Z" fill="#DADADA" fill-opacity="0.17"/>
</svg>
